<svg version="1.1" id="Layer_1" xmlns="http://www.w3.org/2000/svg" xmlns:xlink="http://www.w3.org/1999/xlink" x="0px" y="0px"
	 width="100%" viewBox="0 0 499 499" enable-background="new 0 0 499 499" xml:space="preserve">
<path fill="none" opacity="1.000000" stroke="none" 
	d="
M270.000000,500.000000 
	C180.000015,500.000000 90.500046,500.000000 1.000048,500.000000 
	C1.000032,333.666718 1.000032,167.333450 1.000016,1.000137 
	C167.333237,1.000092 333.666473,1.000092 499.999756,1.000046 
	C499.999847,167.333191 499.999847,333.666382 499.999939,499.999786 
	C423.500000,500.000000 347.000000,500.000000 270.000000,500.000000 
M346.996429,110.986099 
	C346.996429,110.986099 347.055664,110.981941 346.891541,110.468658 
	C346.588806,110.297081 346.286072,110.125504 345.786743,109.528717 
	C345.592926,109.264412 345.336182,109.096184 344.869507,108.513176 
	C344.575867,108.335220 344.282196,108.157265 343.981903,108.021515 
	C343.981903,108.021515 344.022369,108.007812 344.020782,107.327072 
	C343.360657,106.535355 342.700531,105.743637 341.995850,104.981438 
	C341.995850,104.981438 342.048401,104.990997 341.901520,104.462036 
	C341.599609,104.272591 341.297668,104.083138 340.927826,103.545448 
	C340.927826,103.545448 340.858276,103.197517 340.987732,102.592621 
	C340.675201,102.374313 340.362671,102.156006 340.000916,101.987564 
	C340.000916,101.987564 340.064117,101.958023 339.972839,101.414825 
	C339.661621,101.255486 339.350403,101.096146 339.007141,100.990257 
	C339.007141,100.990257 339.064087,100.964966 338.989105,100.402328 
	C338.681854,100.202873 338.374634,100.003418 337.701965,99.252274 
	C333.068329,93.590530 328.440155,87.924271 323.799774,82.268089 
	C316.467987,73.331436 309.263855,64.284737 301.729645,55.521954 
	C298.360626,51.603516 296.132019,45.921619 289.550476,45.996738 
	C281.761963,46.085632 273.973450,46.174656 265.279968,46.130013 
	C258.680481,46.440880 252.082321,46.950935 245.481003,46.995834 
	C240.710800,47.028278 235.939041,46.234291 231.163315,46.173012 
	C218.508621,46.010647 205.850739,45.974911 193.196014,46.092850 
	C191.624924,46.107494 189.549133,46.927639 188.578918,48.097485 
	C176.673676,62.452568 164.937500,76.947800 153.144150,91.395782 
	C145.200607,101.127396 137.300049,110.895172 129.260895,120.547356 
	C122.265099,128.946838 115.005035,137.126709 108.035576,145.547485 
	C97.667694,158.074341 87.413406,170.695984 77.189560,183.340973 
	C72.024750,189.728851 67.032990,196.256653 61.239132,202.836761 
	C60.776295,203.533737 60.313457,204.230698 59.914406,204.944305 
	C59.914406,204.944305 59.901363,204.879684 59.404697,204.994202 
	C59.100475,205.398376 58.796253,205.802567 58.238827,206.325226 
	C58.238827,206.325226 58.134495,206.584579 57.723309,206.754089 
	C57.353691,207.196793 56.984077,207.639481 56.245327,208.272812 
	C56.245327,208.272812 56.062141,208.645691 55.512001,208.915680 
	C54.954590,209.948029 54.397182,210.980392 53.467381,212.152634 
	C53.233368,212.305939 53.083412,212.518539 52.378120,213.058090 
	C51.881618,214.009705 51.385117,214.961319 50.987972,215.946762 
	C50.987972,215.946762 50.901497,215.886673 50.189377,215.874329 
	C49.756947,216.550171 49.324516,217.226013 48.887695,217.956207 
	C48.887695,217.956207 48.939594,217.939484 48.377434,218.024231 
	C48.179081,218.335495 47.980724,218.646774 47.437569,219.139221 
	C47.217197,219.296814 47.069736,219.505844 46.491821,219.942139 
	C46.174259,220.364487 45.856693,220.786850 45.234570,221.325287 
	C45.234570,221.325287 45.102482,221.623260 44.532433,221.835266 
	C44.253979,222.550201 43.975525,223.265137 43.380703,224.140030 
	C43.179596,224.285889 43.052498,224.480179 42.376064,225.040161 
	C41.539818,226.316208 40.703571,227.592255 39.916191,228.987396 
	C39.916191,228.987396 39.883736,228.868546 39.168434,228.860031 
	C38.738598,229.544342 38.308765,230.228668 37.892986,230.971161 
	C37.892986,230.971161 37.923729,230.919815 37.348835,231.079041 
	C36.868259,231.689087 36.387684,232.299118 35.997910,233.000610 
	C35.997910,233.000610 35.910038,232.908096 35.280003,233.099731 
	C35.107761,233.716705 34.935524,234.333679 34.329559,235.225616 
	C33.884468,235.738953 33.439377,236.252274 32.321133,237.063614 
	C30.315691,239.104721 27.133659,240.801895 29.972038,244.361023 
	C33.102989,248.287003 36.236031,252.214508 39.481277,256.045532 
	C49.041080,267.330750 58.647823,278.576294 68.268120,289.810028 
	C69.021950,290.690277 70.023186,291.358643 70.947250,292.071747 
	C70.947250,292.071747 70.881729,292.066650 70.905769,292.756866 
	C72.264717,294.193451 73.623665,295.630066 74.995369,297.004425 
	C74.995369,297.004425 74.931923,297.007538 74.979080,297.724854 
	C80.605263,304.606415 86.121056,311.582214 91.891541,318.340546 
	C96.765793,324.049194 101.935295,329.505768 106.987495,335.011230 
	C106.987495,335.011230 106.923439,335.013184 106.936729,335.730194 
	C110.010178,339.695038 112.904457,343.816742 116.202682,347.584839 
	C120.275398,352.237762 124.683922,356.596710 128.979660,361.026978 
	C128.979660,361.026978 128.916977,361.041626 128.951019,361.754883 
	C131.959641,365.190918 134.968262,368.626984 137.996979,372.004791 
	C137.996979,372.004791 137.935379,372.005280 137.941803,372.720276 
	C138.621719,373.173126 139.301651,373.625977 139.985382,374.014984 
	C139.985382,374.014984 139.922638,374.027313 140.054398,374.723633 
	C144.380585,380.359955 148.540176,386.134827 153.080353,391.593170 
	C157.527267,396.939453 162.361755,401.963348 167.248764,407.612762 
	C167.786240,408.068146 168.323700,408.523499 168.921875,409.674225 
	C170.264938,411.137787 171.608002,412.601349 172.967728,414.003540 
	C172.967728,414.003540 172.914246,414.037994 172.905426,414.753723 
	C176.268143,418.495361 179.630844,422.236969 183.146057,426.415405 
	C183.305023,426.698029 183.537903,426.891846 183.878113,427.700867 
	C185.239883,429.174561 186.601654,430.648254 188.122940,432.567535 
	C188.477829,432.876221 188.832718,433.184906 189.277084,433.699738 
	C189.277084,433.699738 189.479263,433.797852 189.784241,434.380188 
	C192.221146,437.412689 193.430435,442.193756 199.900482,440.956848 
	C220.289047,440.929321 240.677628,440.901794 261.990692,440.991882 
	C270.542328,440.997162 279.094513,441.051270 287.645111,440.960052 
	C289.083252,440.944702 290.514740,440.301483 292.023987,440.155731 
	C292.023987,440.155731 292.231476,440.081421 292.765778,439.714447 
	C293.870789,438.158936 294.975800,436.603424 296.010681,435.030853 
	C296.010681,435.030853 296.062927,435.080658 296.769623,435.020355 
	C300.675293,430.182953 304.580963,425.345520 308.528992,420.461761 
	C308.528992,420.461761 308.481476,420.420685 309.052582,420.113586 
	C314.809418,413.628571 320.667633,407.229584 326.277100,400.619507 
	C328.799530,397.647125 330.825104,394.253082 333.020294,391.075745 
	C333.020294,391.075745 333.075073,391.103333 333.804657,391.122406 
	C337.232635,386.757172 340.660614,382.391907 344.017334,378.005737 
	C344.017334,378.005737 343.996490,378.077026 344.476379,377.864441 
	C344.654877,377.573181 344.833374,377.281921 344.985809,377.022217 
	C344.985809,377.022217 345.026337,377.027832 345.586334,376.727386 
	C346.074432,375.826477 346.562561,374.925598 347.002167,374.000153 
	C347.002167,374.000153 347.026062,374.048981 347.679108,373.960602 
	C348.154633,373.338928 348.630127,372.717285 349.109039,372.072937 
	C349.109039,372.072937 349.111450,372.050140 349.652710,371.702789 
	C350.913696,369.815491 352.174683,367.928192 352.837280,365.343781 
	C338.620636,365.241455 324.404022,365.127899 310.187195,365.080383 
	C309.653168,365.078583 309.117004,365.718201 307.911621,366.060120 
	C306.209381,367.350037 304.507172,368.639954 302.099518,370.011414 
	C291.051941,376.703491 280.004333,383.395569 268.335846,389.759216 
	C266.722015,386.786072 265.092041,383.821594 263.497253,380.838257 
	C257.683136,369.962067 251.702499,359.170197 246.115540,348.178345 
	C237.627762,331.479401 229.538849,314.577698 221.047440,297.880615 
	C214.572281,285.148224 207.757797,272.587891 201.049576,259.974792 
	C198.020554,254.279465 194.882828,248.641983 192.116760,242.338165 
	C197.064453,233.306763 202.192307,224.368500 206.920563,215.223648 
	C215.506073,198.618637 223.775803,181.850555 232.326065,165.227036 
	C238.925842,152.395706 246.175461,139.881424 252.346771,126.852287 
	C257.362244,116.263382 263.250549,106.221451 269.601074,96.203590 
	C270.044769,96.482460 270.488464,96.761330 271.302887,97.634354 
	C277.196381,100.771492 283.089905,103.908638 288.999725,106.998016 
	C288.999725,106.998016 288.958496,107.027145 289.263519,107.601898 
	C290.173065,108.078094 291.082642,108.554291 292.002441,108.995743 
	C292.002441,108.995743 291.973816,109.017906 292.345154,109.594429 
	C296.231842,111.732277 300.118500,113.870125 304.004578,115.993774 
	C304.004578,115.993774 303.990875,115.997391 304.312225,116.642731 
	C307.448639,117.758789 310.540680,119.671547 313.729370,119.849159 
	C325.748260,120.518631 337.797821,120.667816 349.838226,120.880722 
	C351.251038,120.905708 352.678192,120.117714 354.670959,119.540970 
	C352.067871,116.555351 350.061371,114.253967 348.000275,111.971680 
	C348.000275,111.971680 348.056824,111.977570 347.978180,111.417618 
	C347.658691,111.255569 347.339203,111.093521 346.996429,110.986099 
M386.993835,267.015625 
	C386.993835,267.015625 387.066925,266.999725 386.896942,266.634644 
	C386.637085,266.727173 386.377228,266.819702 385.395294,266.823517 
	C379.732239,264.140442 374.115906,261.352386 368.392517,258.804840 
	C363.031769,256.418701 357.557678,254.287338 351.858734,251.400391 
	C350.607056,250.551208 349.355408,249.702026 348.131958,248.871979 
	C357.995544,243.833939 367.406616,239.027023 376.975464,233.250061 
	C376.985535,209.590591 377.016754,185.931046 376.950867,162.271790 
	C376.947083,160.916138 376.151154,159.562683 374.934998,157.981583 
	C368.932648,157.728317 362.930298,157.475067 356.483948,157.098602 
	C356.483948,157.098602 356.030792,157.182053 355.811554,156.291092 
	C355.164703,156.182861 354.517883,155.980316 353.870972,155.979965 
	C324.496613,155.964264 295.122253,155.955658 265.748016,156.012558 
	C264.770233,156.014450 263.793793,156.700760 262.266327,157.016891 
	C261.853058,157.288910 261.439789,157.560928 260.332825,158.202972 
	C259.891113,163.043854 259.037323,167.889084 259.088196,172.724792 
	C259.218658,185.126953 259.750977,197.524902 259.954193,210.858109 
	C259.992676,231.840744 260.039001,252.823364 260.054474,273.806000 
	C260.055664,275.454010 259.716278,277.105072 259.754517,278.749603 
	C259.832703,282.112213 260.060181,285.471375 260.076477,289.779968 
	C260.048096,311.190948 260.091064,332.602509 259.925110,354.012421 
	C259.895477,357.832886 260.942902,359.439087 264.980042,359.067169 
	C269.263885,358.672455 273.596252,358.804749 278.850433,358.810333 
	C284.922638,358.776947 290.994843,358.743591 297.986298,358.848450 
	C309.299347,358.806732 320.612396,358.765015 332.703430,358.817780 
	C333.484955,358.785919 334.266510,358.754059 335.857452,358.855133 
	C337.220093,358.810760 338.582733,358.766388 340.716339,358.815887 
	C341.490906,358.785400 342.265442,358.754913 343.964233,358.863068 
	C350.948639,358.813080 357.933044,358.763062 365.790222,358.814392 
	C367.544800,358.776367 369.299347,358.738342 371.883881,358.836945 
	C373.557495,358.792877 375.231140,358.748779 377.709137,358.807465 
	C378.787720,358.774017 379.866333,358.740570 381.827484,358.844543 
	C384.183502,358.826935 386.539490,358.809296 389.839600,358.907257 
	C398.051636,358.826141 406.263702,358.744995 415.165344,358.787567 
	C420.612213,357.178833 416.946838,353.710358 416.924408,350.035675 
	C416.948212,327.787964 417.011597,305.540100 416.906128,283.292999 
	C416.899139,281.818756 415.987671,279.654694 414.833832,279.023346 
	C412.369049,277.674683 409.469147,277.121277 406.477051,276.108002 
	C406.477051,276.108002 406.178253,276.065094 405.928802,275.479095 
	C405.544434,275.384613 405.160065,275.290161 404.445801,275.080414 
	C404.445801,275.080414 404.097961,275.046814 403.856964,274.499847 
	C403.490845,274.402740 403.124756,274.305603 402.517517,274.098022 
	C402.517517,274.098022 402.252472,274.088898 401.934113,273.406921 
	C401.221191,273.327789 400.508270,273.248627 399.515320,273.072388 
	C399.515320,273.072388 399.218933,273.069763 398.903931,272.393982 
	C397.851105,271.999847 396.798279,271.605682 395.466278,271.101501 
	C395.466278,271.101501 395.169250,271.059204 394.915588,270.454834 
	C394.514435,270.371246 394.113281,270.287659 393.190308,270.103821 
	C392.836792,270.081329 392.483276,270.058868 391.802673,269.417969 
	C390.532013,268.915649 389.261383,268.413330 387.986938,268.010498 
	C387.986938,268.010498 388.086395,268.014404 387.933350,267.468994 
	C387.614838,267.293518 387.296326,267.118042 386.993835,267.015625 
z"/>
<path fill="#1099B7" opacity="1.000000" stroke="none" 
	d="
M32.994286,236.765594 
	C33.439377,236.252274 33.884468,235.738953 34.748070,234.872284 
	C35.414402,233.981995 35.662220,233.445038 35.910042,232.908096 
	C35.910038,232.908096 35.997910,233.000610 36.215958,232.826385 
	C36.930584,232.074722 37.427158,231.497269 37.923729,230.919815 
	C37.923729,230.919815 37.892986,230.971161 38.145519,230.804352 
	C38.893280,230.047882 39.388508,229.458221 39.883736,228.868546 
	C39.883736,228.868546 39.916191,228.987396 40.216228,228.803787 
	C41.343979,227.321075 42.171692,226.021988 42.999405,224.722885 
	C43.052498,224.480179 43.179596,224.285889 43.792427,223.905487 
	C44.503597,222.988403 44.803043,222.305832 45.102486,221.623260 
	C45.102482,221.623260 45.234570,221.325287 45.639626,221.170349 
	C46.361511,220.599045 46.678345,220.182678 46.995178,219.766296 
	C47.069736,219.505844 47.217197,219.296814 47.844513,218.930817 
	C48.480835,218.461426 48.710213,218.200455 48.939590,217.939484 
	C48.939594,217.939484 48.887695,217.956207 49.147713,217.790527 
	C49.905655,217.045456 50.403576,216.466064 50.901497,215.886673 
	C50.901497,215.886673 50.987972,215.946762 51.218582,215.757263 
	C51.971966,214.641998 52.494743,213.716217 53.017517,212.790421 
	C53.083412,212.518539 53.233368,212.305939 53.977905,211.986511 
	C55.013004,210.762146 55.537575,209.703918 56.062141,208.645691 
	C56.062141,208.645691 56.245327,208.272812 56.684837,208.174988 
	C57.461063,207.579620 57.797779,207.082108 58.134495,206.584579 
	C58.134495,206.584579 58.238827,206.325226 58.605011,206.180206 
	C59.281250,205.650024 59.591309,205.264862 59.901363,204.879684 
	C59.901363,204.879684 59.914406,204.944305 60.125805,204.748779 
	C60.879131,203.942551 61.421059,203.331879 61.962990,202.721191 
	C67.032990,196.256653 72.024750,189.728851 77.189560,183.340973 
	C87.413406,170.695984 97.667694,158.074341 108.035576,145.547485 
	C115.005035,137.126709 122.265099,128.946838 129.260895,120.547356 
	C137.300049,110.895172 145.200607,101.127396 153.144150,91.395782 
	C164.937500,76.947800 176.673676,62.452568 188.578918,48.097485 
	C189.549133,46.927639 191.624924,46.107494 193.196014,46.092850 
	C205.850739,45.974911 218.508621,46.010647 231.163315,46.173012 
	C235.939041,46.234291 240.710800,47.028278 245.481003,46.995834 
	C252.082321,46.950935 258.680481,46.440880 266.078827,46.376152 
	C273.508484,46.789829 280.143677,46.860474 286.768616,47.158070 
	C291.386871,47.365528 292.449036,48.988220 290.525757,52.658348 
	C283.979492,65.150307 277.315948,77.581100 270.825958,90.101967 
	C269.883942,91.919319 269.644684,94.100929 269.080261,96.113983 
	C263.250549,106.221451 257.362244,116.263382 252.346771,126.852287 
	C246.175461,139.881424 238.925842,152.395706 232.326065,165.227036 
	C223.775803,181.850555 215.506073,198.618637 206.920563,215.223648 
	C202.192307,224.368500 197.064453,233.306763 191.500366,242.642288 
	C138.239700,243.001465 85.595413,243.056519 32.827225,242.793793 
	C32.800312,240.572556 32.897297,238.669067 32.994286,236.765594 
z"/>
<path fill="#0C6E98" opacity="1.000000" stroke="none" 
	d="
M32.951126,243.111557 
	C85.595413,243.056519 138.239700,243.001465 191.339203,242.962341 
	C194.882828,248.641983 198.020554,254.279465 201.049576,259.974792 
	C207.757797,272.587891 214.572281,285.148224 221.047440,297.880615 
	C229.538849,314.577698 237.627762,331.479401 246.115540,348.178345 
	C251.702499,359.170197 257.683136,369.962067 263.497253,380.838257 
	C265.092041,383.821594 266.722015,386.786072 268.737366,390.275757 
	C269.861877,392.646637 270.454102,394.565186 271.328552,396.345093 
	C278.134033,410.197174 284.993927,424.022522 291.386078,437.890930 
	C270.798859,438.283417 250.662979,438.668854 230.526001,438.983032 
	C224.030624,439.084381 217.531082,438.919250 211.035675,439.019318 
	C204.006195,439.127625 196.963013,439.513458 191.405899,433.921570 
	C191.066208,433.579712 190.135178,433.825470 189.479263,433.797852 
	C189.479263,433.797852 189.277084,433.699738 189.322571,433.258301 
	C188.907333,431.857971 188.446594,430.899048 187.786972,429.683350 
	C186.340286,428.616669 185.092484,427.806793 183.844681,426.996887 
	C183.537903,426.891846 183.305023,426.698029 183.027710,425.839661 
	C180.951874,420.298401 178.115891,416.115051 172.914246,414.037994 
	C172.914246,414.037994 172.967728,414.003540 172.932983,413.676544 
	C171.552551,411.892639 170.206863,410.435760 168.861176,408.978851 
	C168.323700,408.523499 167.786240,408.068146 167.099152,407.002838 
	C166.208496,404.936401 165.676620,403.317291 164.691727,402.050354 
	C159.213409,395.003296 153.767548,387.921173 148.004150,381.110352 
	C145.715805,378.406189 142.639954,376.368469 139.922638,374.027313 
	C139.922638,374.027313 139.985382,374.014984 139.878036,373.759338 
	C139.158920,373.004242 138.547150,372.504761 137.935379,372.005280 
	C137.935379,372.005280 137.996979,372.004791 137.941650,371.675873 
	C134.896530,367.911835 131.906754,364.476746 128.916977,361.041626 
	C128.916977,361.041626 128.979660,361.026978 128.937698,360.694763 
	C124.515968,354.675659 120.303711,348.848022 115.690720,343.357025 
	C113.111763,340.287201 109.867775,337.776062 106.923447,335.013184 
	C106.923439,335.013184 106.987495,335.011230 106.926178,334.690552 
	C106.148521,333.082855 105.604744,331.655212 104.688721,330.530853 
	C96.967834,321.053864 89.255379,311.567474 81.351173,302.244324 
	C79.595322,300.173248 77.091408,298.736420 74.931923,297.007538 
	C74.931923,297.007538 74.995369,297.004425 74.942795,296.680725 
	C73.554054,294.926910 72.217888,293.496796 70.881729,292.066650 
	C70.881729,292.066650 70.947250,292.071747 70.915100,291.725616 
	C69.954742,289.471069 69.367912,287.274414 68.040886,285.702759 
	C61.302471,277.722137 54.231434,270.020569 47.554806,261.990204 
	C42.471581,255.876343 37.803757,249.417130 32.951126,243.111557 
z"/>
<path fill="#018B9E" opacity="1.000000" stroke="none" 
	d="
M392.129761,270.036377 
	C392.483276,270.058868 392.836792,270.081329 393.672455,270.333374 
	C394.492828,270.728363 394.831024,270.893799 395.169250,271.059204 
	C395.169250,271.059204 395.466278,271.101501 395.819580,271.421600 
	C397.188202,272.184387 398.203583,272.627075 399.218933,273.069763 
	C399.218933,273.069763 399.515320,273.072388 399.936493,273.301605 
	C400.989258,273.716858 401.620880,273.902863 402.252472,274.088898 
	C402.252472,274.088898 402.517517,274.098022 402.847809,274.316772 
	C403.484711,274.705933 403.791351,274.876373 404.097961,275.046814 
	C404.097961,275.046814 404.445801,275.080414 404.824646,275.315063 
	C405.528412,275.721497 405.853333,275.893311 406.178253,276.065094 
	C406.178253,276.065094 406.477051,276.108002 406.825256,276.446106 
	C407.825104,277.288727 408.405823,278.060425 409.139740,278.255432 
	C414.878265,279.780212 416.132996,283.687897 416.059967,289.194458 
	C415.804565,308.450653 415.946442,327.712158 415.753510,347.076263 
	C415.672852,347.805786 415.776093,348.430695 415.895691,349.365173 
	C415.946289,350.085602 415.980530,350.496399 415.978729,351.262604 
	C415.643677,354.934875 413.624878,354.830658 411.316681,353.849091 
	C406.432526,351.772034 401.563324,349.657562 396.720398,347.486084 
	C385.040100,342.248749 373.382446,336.960907 361.707977,331.710510 
	C352.011719,327.349854 342.371643,322.854736 332.581085,318.716248 
	C324.650482,315.363953 316.533112,312.453583 308.264038,309.296051 
	C307.713257,309.167236 307.405640,309.063843 306.947540,308.635956 
	C301.614502,305.524078 296.463654,302.667480 291.260254,299.910095 
	C286.181732,297.218872 279.365875,297.278717 276.822876,290.509644 
	C276.874237,290.331970 277.016479,289.990479 277.282654,289.895386 
	C278.019836,289.490509 278.490814,289.180695 279.188049,288.708771 
	C279.917358,288.311401 280.420380,288.076141 281.201111,287.977234 
	C285.241394,288.195923 287.787415,286.533661 289.191010,282.749969 
	C289.936523,282.395081 290.448578,282.188538 291.280518,281.930115 
	C292.394073,281.239014 293.187775,280.599823 293.993011,279.979187 
	C294.004517,279.997772 293.968567,279.974121 294.343750,279.941376 
	C296.802032,278.573761 298.885101,277.238892 301.189178,275.656616 
	C304.609192,273.276855 307.808258,271.144501 311.396332,269.001923 
	C313.865173,267.668793 315.944977,266.345917 318.297699,264.828308 
	C321.661102,262.725739 324.751587,260.817932 328.047791,258.768951 
	C328.517944,258.425690 328.766998,258.206146 329.037537,257.833649 
	C329.099304,257.414368 329.050690,257.140564 329.157043,256.613220 
	C334.888824,253.907501 340.392181,251.465408 346.133636,249.283081 
	C348.292297,250.376526 350.212891,251.210205 352.133453,252.043854 
	C357.557678,254.287338 363.031769,256.418701 368.392517,258.804840 
	C374.115906,261.352386 379.732239,264.140442 385.993195,266.890869 
	C386.591095,266.958221 387.066925,266.999725 387.066925,266.999725 
	C387.066925,266.999725 386.993835,267.015625 387.137390,267.190491 
	C387.549408,267.581696 387.817902,267.798065 388.086395,268.014404 
	C388.086395,268.014404 387.986938,268.010498 388.176758,268.249084 
	C389.621002,269.003906 390.875366,269.520142 392.129761,270.036377 
z"/>
<path fill="#035F6B" opacity="1.000000" stroke="none" 
	d="
M277.016479,289.990479 
	C277.016479,289.990479 276.874237,290.331970 276.512573,290.592896 
	C275.004913,291.490570 273.858917,292.127380 271.244781,293.579895 
	C278.118469,296.872101 283.555145,299.476044 289.071991,302.407898 
	C294.794128,306.121979 300.436066,309.508118 306.395142,312.910950 
	C307.134155,312.963013 307.556061,312.998413 308.113647,313.292175 
	C308.853149,314.011658 309.457001,314.472778 310.360046,315.020416 
	C311.425293,315.425751 312.191315,315.744507 313.103882,316.366394 
	C315.826752,318.108917 318.403107,319.548309 320.989075,320.994019 
	C320.998718,321.000305 321.013977,321.017548 321.132996,321.255005 
	C322.192535,321.448303 323.133087,321.404144 324.329407,321.370667 
	C324.755768,321.374390 324.926300,321.367432 325.281219,321.477661 
	C325.869507,321.763641 326.273407,321.932465 326.739807,322.328156 
	C326.802277,322.555023 326.950348,323.001740 326.888184,323.253967 
	C328.282410,324.623444 329.738770,325.740723 331.417389,326.833435 
	C331.639618,326.808899 332.086182,326.786987 332.308899,326.829529 
	C332.531586,326.872070 332.983246,326.912292 332.979126,326.950806 
	C332.974976,326.989349 332.967560,327.066498 333.081116,327.389679 
	C337.546021,330.082092 341.897339,332.451294 346.535309,334.840240 
	C347.200287,334.919220 347.578644,334.978516 348.108521,335.334564 
	C355.880920,339.717407 363.501740,343.803497 371.335876,347.916199 
	C371.549164,347.942810 371.972504,348.017487 372.087646,348.336884 
	C373.680542,349.931274 375.343231,351.049500 376.590057,352.520264 
	C378.214325,354.436188 379.508636,356.631836 380.944916,358.707123 
	C379.866333,358.740570 378.787720,358.774017 376.996582,358.631653 
	C374.540649,358.537323 372.797302,358.618805 371.053925,358.700317 
	C369.299347,358.738342 367.544800,358.776367 364.974304,358.628296 
	C357.118958,358.536316 350.079468,358.630371 343.040009,358.724426 
	C342.265442,358.754913 341.490906,358.785400 340.037872,358.642242 
	C337.922272,358.553131 336.485168,358.637665 335.048035,358.722198 
	C334.266510,358.754059 333.484955,358.785919 331.934723,358.632751 
	C319.799683,358.535248 308.433380,358.622711 297.067047,358.710205 
	C290.994843,358.743591 284.922638,358.776947 278.021851,358.627319 
	C274.402039,358.106598 271.618927,357.598724 268.817963,357.465057 
	C262.043549,357.141754 262.073578,357.211578 261.969269,350.529663 
	C261.649109,330.019257 261.300964,309.509277 261.276794,288.921692 
	C262.691864,288.260284 263.793823,287.676331 265.217407,286.972717 
	C266.825104,286.483307 268.111115,286.113525 269.711487,285.701416 
	C270.687897,285.210907 271.349945,284.762756 272.192871,284.187744 
	C272.373779,284.060852 272.779205,283.885040 273.178040,283.901947 
	C274.992310,283.120758 276.407776,282.322662 278.071503,281.313110 
	C280.546875,280.064209 282.773956,279.026764 285.128967,278.301941 
	C285.830017,280.074738 286.403168,281.534943 286.751556,283.194336 
	C285.685577,283.917206 284.844391,284.440887 283.778076,284.911011 
	C283.001007,285.505188 282.449066,286.152863 281.718292,286.958130 
	C281.310028,287.337006 281.104706,287.578735 280.923431,287.840881 
	C280.420380,288.076141 279.917358,288.311401 278.919067,288.800995 
	C277.954681,289.367035 277.485565,289.678741 277.016479,289.990479 
z"/>
<path fill="#116F98" opacity="1.000000" stroke="none" 
	d="
M269.340668,96.158783 
	C269.644684,94.100929 269.883942,91.919319 270.825958,90.101967 
	C277.315948,77.581100 283.979492,65.150307 290.525757,52.658348 
	C292.449036,48.988220 291.386871,47.365528 286.768616,47.158070 
	C280.143677,46.860474 273.508484,46.789829 266.531311,46.442963 
	C273.973450,46.174656 281.761963,46.085632 289.550476,45.996738 
	C296.132019,45.921619 298.360626,51.603516 301.729645,55.521954 
	C309.263855,64.284737 316.467987,73.331436 323.799774,82.268089 
	C328.440155,87.924271 333.068329,93.590530 338.010254,99.753304 
	C338.567017,100.491211 338.815552,100.728096 339.064087,100.964966 
	C339.064087,100.964966 339.007141,100.990257 339.160950,101.164940 
	C339.525696,101.592850 339.775482,101.798981 340.064117,101.958023 
	C340.064117,101.958023 340.000916,101.987564 340.129333,102.190613 
	C340.457916,102.661621 340.658112,102.929565 340.858276,103.197510 
	C340.858276,103.197517 340.927826,103.545448 341.109192,103.928268 
	C341.543182,104.537735 341.795776,104.764366 342.048401,104.990997 
	C342.048401,104.990997 341.995850,104.981438 342.050415,105.290680 
	C342.744110,106.402550 343.383240,107.205177 344.022369,108.007805 
	C344.022369,108.007812 343.981903,108.021515 344.133514,108.196358 
	C344.500702,108.620430 344.744476,108.838036 345.016479,109.024033 
	C345.336182,109.096184 345.592926,109.264412 346.039490,109.937134 
	C346.516998,110.593323 346.771484,110.805450 347.055664,110.981941 
	C347.055664,110.981941 346.996429,110.986099 347.147125,111.164726 
	C347.510193,111.603371 347.763184,111.814781 348.056824,111.977570 
	C348.056824,111.977570 348.000275,111.971680 348.043945,112.349182 
	C348.664246,115.941978 349.606628,119.129478 344.220001,118.877449 
	C330.783813,118.248787 317.137390,120.692711 303.990875,115.997391 
	C303.990875,115.997391 304.004578,115.993774 303.910004,115.672333 
	C300.910828,111.290413 296.928650,109.244827 291.973816,109.017906 
	C291.973816,109.017906 292.002441,108.995743 291.858643,108.721878 
	C290.796051,107.974396 289.877258,107.500778 288.958496,107.027145 
	C288.958496,107.027145 288.999725,106.998016 288.868500,106.705200 
	C283.441467,103.177391 278.160461,99.917358 272.821533,96.755127 
	C272.396973,96.503654 271.571381,96.929245 270.932159,97.040192 
	C270.488464,96.761330 270.044769,96.482460 269.340668,96.158783 
z"/>
<path fill="#0D577A" opacity="1.000000" stroke="none" 
	d="
M291.836975,437.856171 
	C284.993927,424.022522 278.134033,410.197174 271.328552,396.345093 
	C270.454102,394.565186 269.861877,392.646637 269.047821,390.439941 
	C280.004333,383.395569 291.051941,376.703491 302.843689,369.940796 
	C306.730530,368.921967 309.848022,367.269684 313.020599,367.156128 
	C322.974609,366.799957 332.949371,367.040436 342.915985,367.012512 
	C346.397308,367.002777 348.660248,368.385498 349.111450,372.050140 
	C349.111450,372.050140 349.109039,372.072937 348.835327,372.205475 
	C348.049774,372.908325 347.537933,373.478668 347.026062,374.048981 
	C347.026062,374.048981 347.002167,374.000153 346.743805,374.162842 
	C345.999054,375.226257 345.512695,376.127045 345.026337,377.027832 
	C345.026337,377.027832 344.985809,377.022217 344.813843,377.172363 
	C344.404419,377.554901 344.189301,377.806396 343.996490,378.077026 
	C343.996490,378.077026 344.017334,378.005737 343.718292,378.106140 
	C339.971191,382.505463 336.523132,386.804413 333.075073,391.103333 
	C333.075073,391.103333 333.020294,391.075745 332.715454,391.150391 
	C326.592285,397.516693 320.597961,403.657867 315.033051,410.166260 
	C312.422424,413.219482 310.639496,416.980469 308.481476,420.420685 
	C308.481476,420.420685 308.528992,420.461761 308.140656,420.465607 
	C303.855865,425.339874 299.959412,430.210266 296.062927,435.080658 
	C296.062927,435.080658 296.010681,435.030853 295.733459,435.116394 
	C294.306427,436.128265 293.156616,437.054596 291.964111,437.950073 
	C291.921387,437.919220 291.836975,437.856171 291.836975,437.856171 
z"/>
<path fill="#2D3F42" opacity="1.000000" stroke="none" 
	d="
M332.086182,326.786987 
	C332.086182,326.786987 331.639618,326.808899 331.286316,326.536041 
	C329.605438,325.176025 328.277893,324.088898 326.950348,323.001740 
	C326.950348,323.001740 326.802277,322.555023 326.577576,322.173767 
	C325.934204,321.648499 325.515533,321.504486 325.096832,321.360474 
	C324.926300,321.367432 324.755768,321.374390 324.072937,321.251343 
	C323.384644,321.055481 323.208679,320.989624 322.929871,320.654602 
	C322.884735,319.271332 322.942444,318.157288 323.285187,317.110352 
	C325.402588,318.010406 327.234924,318.843292 329.306763,319.892303 
	C330.137207,320.355896 330.728119,320.603302 331.610931,320.934662 
	C332.622498,321.388702 333.342163,321.758820 334.284241,322.278931 
	C335.009583,322.614838 335.512604,322.800751 336.008484,322.994537 
	C336.001404,323.002441 336.004852,322.983490 336.230255,323.162354 
	C336.790741,323.534668 337.125854,323.728149 337.810730,323.948547 
	C339.409393,324.413025 340.697815,324.762207 341.901184,325.301270 
	C361.253540,333.969666 380.614655,342.619080 399.925476,351.379303 
	C404.861359,353.618408 409.630188,356.225708 414.475739,358.663849 
	C406.263702,358.744995 398.051636,358.826141 389.314148,358.519165 
	C383.183289,354.759857 377.577911,351.388672 371.972504,348.017487 
	C371.972504,348.017487 371.549164,347.942810 371.113190,347.659637 
	C363.103790,343.263580 355.530396,339.150696 347.957001,335.037811 
	C347.578644,334.978516 347.200287,334.919220 346.380859,334.539185 
	C341.615692,331.834442 337.291626,329.450470 332.967560,327.066498 
	C332.967560,327.066498 332.974976,326.989349 332.874939,326.893768 
	C332.547272,326.712433 332.317719,326.708710 332.086182,326.786987 
z"/>
<path fill="#0290A5" opacity="1.000000" stroke="none" 
	d="
M356.030792,157.182053 
	C356.030792,157.182053 356.483948,157.098602 357.096619,157.305176 
	C362.490387,158.042267 367.271454,158.572800 371.759094,159.285736 
	C356.445160,166.581863 341.486877,173.831039 326.384705,180.766922 
	C314.019409,186.445847 301.482697,191.751556 288.890533,197.018158 
	C288.574707,196.552277 288.369904,196.308105 288.289246,195.849670 
	C288.678741,195.133255 288.923645,194.648270 289.135498,194.150681 
	C289.102509,194.138077 289.078552,194.204544 289.408966,194.195282 
	C290.515839,193.804413 291.292297,193.422806 292.345795,192.931061 
	C293.411255,192.222855 294.199615,191.624802 295.340454,190.976379 
	C298.632812,189.026962 301.572754,187.127899 304.640991,185.230438 
	C304.769348,185.232071 305.005096,185.130417 305.360687,185.066849 
	C310.324860,182.112122 314.933441,179.220947 319.820190,176.289764 
	C320.743256,175.884644 321.388123,175.519516 322.376373,175.065323 
	C325.836761,173.000595 328.953766,171.024933 332.041168,169.035980 
	C332.011566,169.022705 332.039337,169.081360 332.370758,169.010803 
	C333.985443,168.053513 335.268738,167.166763 336.669800,166.293365 
	C336.787598,166.306747 337.009247,166.222641 337.362854,166.140869 
	C342.092377,163.422241 346.468262,160.785385 351.203430,158.110794 
	C352.690063,157.796082 353.817383,157.519119 355.214844,157.202545 
	C355.666931,157.169296 355.848877,157.175674 356.030792,157.182053 
z"/>
<path fill="#158190" opacity="1.000000" stroke="none" 
	d="
M414.820557,358.725708 
	C409.630188,356.225708 404.861359,353.618408 399.925476,351.379303 
	C380.614655,342.619080 361.253540,333.969666 341.901184,325.301270 
	C340.697815,324.762207 339.409393,324.413025 337.602478,323.736633 
	C336.697876,323.326355 336.351349,323.154938 336.004852,322.983490 
	C336.004852,322.983490 336.001404,323.002441 335.795654,322.823517 
	C335.080536,322.472717 334.571198,322.300812 334.061859,322.128906 
	C333.342163,321.758820 332.622498,321.388702 331.364807,320.724884 
	C330.240295,320.179504 329.653809,319.927826 329.067291,319.676147 
	C327.234924,318.843292 325.402588,318.010406 323.013489,316.889832 
	C317.803986,314.183838 313.151276,311.765533 308.498566,309.347198 
	C316.533112,312.453583 324.650482,315.363953 332.581085,318.716248 
	C342.371643,322.854736 352.011719,327.349854 361.707977,331.710510 
	C373.382446,336.960907 385.040100,342.248749 396.720398,347.486084 
	C401.563324,349.657562 406.432526,351.772034 411.316681,353.849091 
	C413.624878,354.830658 415.643677,354.934875 416.166199,351.272980 
	C416.389679,350.927979 416.764374,350.952728 416.764374,350.952728 
	C416.946838,353.710358 420.612213,357.178833 414.820557,358.725708 
z"/>
<path fill="#17D6E9" opacity="1.000000" stroke="none" 
	d="
M350.844147,158.148529 
	C346.468262,160.785385 342.092377,163.422241 337.489075,165.812286 
	C338.396149,163.901749 339.530609,162.238022 341.094025,159.945190 
	C338.875671,159.498779 337.633484,159.037125 336.388611,159.029800 
	C315.287048,158.905518 294.184326,158.718689 273.084076,158.862869 
	C269.108734,158.890030 265.142731,160.285675 261.147217,160.648911 
	C261.090179,159.442963 261.058350,158.637955 261.026520,157.832947 
	C261.439789,157.560928 261.853058,157.288910 263.020996,157.087524 
	C291.790070,157.209183 319.804535,157.260223 347.993927,157.329727 
	C348.517578,157.336319 348.866241,157.324463 349.416687,157.273010 
	C349.618408,157.233444 350.029419,157.223175 350.029419,157.223175 
	C350.029419,157.223175 350.436279,157.282379 350.526642,157.504364 
	C350.617004,157.726364 350.844147,158.148529 350.844147,158.148529 
z"/>
<path fill="#1F9BA6" opacity="1.000000" stroke="none" 
	d="
M372.052551,159.103333 
	C367.271454,158.572800 362.490387,158.042267 357.318604,157.366791 
	C362.930298,157.475067 368.932648,157.728317 375.402588,158.544006 
	C375.932343,181.867004 375.973541,204.627686 376.089111,227.387985 
	C376.100677,229.666534 376.563995,231.942795 376.817688,234.220108 
	C367.406616,239.027023 357.995544,243.833939 348.131958,248.871979 
	C349.355408,249.702026 350.607056,250.551208 351.996094,251.722137 
	C350.212891,251.210205 348.292297,250.376526 346.266174,248.956421 
	C347.244537,247.392120 348.175812,246.096939 349.438019,245.489532 
	C356.039215,242.312820 362.692688,239.238831 369.393860,236.278305 
	C372.691467,234.821442 374.968719,233.001205 374.952728,228.931702 
	C374.869080,207.600311 374.999878,186.267731 374.807098,164.937805 
	C374.789429,162.984848 373.012512,161.047791 372.052551,159.103333 
z"/>
<path fill="#28728A" opacity="1.000000" stroke="none" 
	d="
M32.827225,242.793793 
	C37.803757,249.417130 42.471581,255.876343 47.554806,261.990204 
	C54.231434,270.020569 61.302471,277.722137 68.040886,285.702759 
	C69.367912,287.274414 69.954742,289.471069 70.896179,291.752502 
	C70.023186,291.358643 69.021950,290.690277 68.268120,289.810028 
	C58.647823,278.576294 49.041080,267.330750 39.481277,256.045532 
	C36.236031,252.214508 33.102989,248.287003 29.972038,244.361023 
	C27.133659,240.801895 30.315691,239.104721 32.657707,236.914612 
	C32.897297,238.669067 32.800312,240.572556 32.827225,242.793793 
z"/>
<path fill="#196385" opacity="1.000000" stroke="none" 
	d="
M189.631744,434.089020 
	C190.135178,433.825470 191.066208,433.579712 191.405899,433.921570 
	C196.963013,439.513458 204.006195,439.127625 211.035675,439.019318 
	C217.531082,438.919250 224.030624,439.084381 230.526001,438.983032 
	C250.662979,438.668854 270.798859,438.283417 291.386047,437.890930 
	C291.836975,437.856171 291.921387,437.919220 291.989014,438.301697 
	C292.114899,439.149902 292.173187,439.615662 292.231506,440.081421 
	C292.231476,440.081421 292.023987,440.155731 291.521851,440.063019 
	C281.042267,440.003845 271.064789,440.037384 260.613861,440.042816 
	C241.369629,440.038879 222.598755,440.045135 203.828171,440.118774 
	C202.204391,440.125122 200.582352,440.577026 198.959503,440.821960 
	C193.430435,442.193756 192.221146,437.412689 189.631744,434.089020 
z"/>
<path fill="#165860" opacity="1.000000" stroke="none" 
	d="
M260.963684,288.999146 
	C261.300964,309.509277 261.649109,330.019257 261.969269,350.529663 
	C262.073578,357.211578 262.043549,357.141754 268.817963,357.465057 
	C271.618927,357.598724 274.402039,358.106598 277.550354,358.575592 
	C273.596252,358.804749 269.263885,358.672455 264.980042,359.067169 
	C260.942902,359.439087 259.895477,357.832886 259.925110,354.012421 
	C260.091064,332.602509 260.048096,311.190948 260.341675,289.321472 
	C260.606903,288.863007 260.963684,288.999146 260.963684,288.999146 
z"/>
<path fill="#28728A" opacity="1.000000" stroke="none" 
	d="
M74.955505,297.366211 
	C77.091408,298.736420 79.595322,300.173248 81.351173,302.244324 
	C89.255379,311.567474 96.967834,321.053864 104.688721,330.530853 
	C105.604744,331.655212 106.148521,333.082855 106.919495,334.721924 
	C101.935295,329.505768 96.765793,324.049194 91.891541,318.340546 
	C86.121056,311.582214 80.605263,304.606415 74.955505,297.366211 
z"/>
<path fill="#39A4B0" opacity="1.000000" stroke="none" 
	d="
M261.276794,288.921692 
	C260.963684,288.999146 260.606903,288.863007 260.416534,288.847473 
	C260.060181,285.471375 259.832703,282.112213 259.754517,278.749603 
	C259.716278,277.105072 260.055664,275.454010 260.054474,273.806000 
	C260.039001,252.823364 259.992676,231.840744 260.244080,210.500824 
	C260.533936,210.143524 260.970520,210.304657 261.019989,210.588470 
	C261.105896,211.063156 261.142365,211.254044 261.169220,211.885437 
	C261.118256,234.947998 261.068115,257.570068 261.046417,280.192139 
	C261.043549,283.169830 260.624451,286.461914 264.895752,287.092346 
	C263.793823,287.676331 262.691864,288.260284 261.276794,288.921692 
z"/>
<path fill="#BCFFFF" opacity="1.000000" stroke="none" 
	d="
M350.436279,157.282379 
	C350.436279,157.282379 350.029419,157.223175 350.029419,157.223175 
	C350.029419,157.223175 349.618408,157.233444 349.067535,157.253876 
	C348.284088,157.286606 348.051544,157.298935 347.818970,157.311264 
	C319.804535,157.260223 291.790070,157.209183 263.296173,157.113083 
	C263.793793,156.700760 264.770233,156.014450 265.748016,156.012558 
	C295.122253,155.955658 324.496613,155.964264 353.870972,155.979965 
	C354.517883,155.980316 355.164703,156.182861 355.921173,156.736572 
	C355.848877,157.175674 355.666931,157.169296 354.774933,157.137802 
	C352.855316,157.169235 351.645813,157.225800 350.436279,157.282379 
z"/>
<path fill="#28728A" opacity="1.000000" stroke="none" 
	d="
M139.988525,374.375488 
	C142.639954,376.368469 145.715805,378.406189 148.004150,381.110352 
	C153.767548,387.921173 159.213409,395.003296 164.691727,402.050354 
	C165.676620,403.317291 166.208496,404.936401 166.987823,406.760803 
	C162.361755,401.963348 157.527267,396.939453 153.080353,391.593170 
	C148.540176,386.134827 144.380585,380.359955 139.988525,374.375488 
z"/>
<path fill="#308A97" opacity="1.000000" stroke="none" 
	d="
M416.844391,350.494202 
	C416.764374,350.952728 416.389679,350.927979 416.202209,350.917603 
	C415.980530,350.496399 415.946289,350.085602 415.919678,349.018097 
	C415.930695,347.898163 415.934052,347.434875 415.937378,346.971619 
	C415.946442,327.712158 415.804565,308.450653 416.059967,289.194458 
	C416.132996,283.687897 414.878265,279.780212 409.139740,278.255432 
	C408.405823,278.060425 407.825104,277.288727 406.960480,276.513123 
	C409.469147,277.121277 412.369049,277.674683 414.833832,279.023346 
	C415.987671,279.654694 416.899139,281.818756 416.906128,283.292999 
	C417.011597,305.540100 416.948212,327.787964 416.844391,350.494202 
z"/>
<path fill="#28728A" opacity="1.000000" stroke="none" 
	d="
M304.151550,116.320061 
	C317.137390,120.692711 330.783813,118.248787 344.220001,118.877449 
	C349.606628,119.129478 348.664246,115.941978 348.071259,112.339630 
	C350.061371,114.253967 352.067871,116.555351 354.670959,119.540970 
	C352.678192,120.117714 351.251038,120.905708 349.838226,120.880722 
	C337.797821,120.667816 325.748260,120.518631 313.729370,119.849159 
	C310.540680,119.671547 307.448639,117.758789 304.151550,116.320061 
z"/>
<path fill="#24576C" opacity="1.000000" stroke="none" 
	d="
M308.767029,420.267151 
	C310.639496,416.980469 312.422424,413.219482 315.033051,410.166260 
	C320.597961,403.657867 326.592285,397.516693 332.743347,391.137695 
	C330.825104,394.253082 328.799530,397.647125 326.277100,400.619507 
	C320.667633,407.229584 314.809418,413.628571 308.767029,420.267151 
z"/>
<path fill="#3BCCD7" opacity="1.000000" stroke="none" 
	d="
M260.970520,210.304657 
	C260.970520,210.304657 260.533936,210.143524 260.328278,210.034027 
	C259.750977,197.524902 259.218658,185.126953 259.088196,172.724792 
	C259.037323,167.889084 259.891113,163.043854 260.679688,158.017960 
	C261.058350,158.637955 261.090179,159.442963 261.119141,161.112640 
	C261.187103,177.258255 261.257874,192.539200 261.259644,208.231567 
	C261.117249,209.196899 261.043884,209.750778 260.970520,210.304657 
z"/>
<path fill="#72CAD0" opacity="1.000000" stroke="none" 
	d="
M376.896576,233.735077 
	C376.563995,231.942795 376.100677,229.666534 376.089111,227.387985 
	C375.973541,204.627686 375.932343,181.867004 375.797058,158.657318 
	C376.151154,159.562683 376.947083,160.916138 376.950867,162.271790 
	C377.016754,185.931046 376.985535,209.590591 376.896576,233.735077 
z"/>
<path fill="#165860" opacity="1.000000" stroke="none" 
	d="
M349.382080,371.876465 
	C348.660248,368.385498 346.397308,367.002777 342.915985,367.012512 
	C332.949371,367.040436 322.974609,366.799957 313.020599,367.156128 
	C309.848022,367.269684 306.730530,368.921967 303.196381,369.900024 
	C304.507172,368.639954 306.209381,367.350037 308.747375,366.046875 
	C324.200623,366.036072 338.818146,366.038483 353.435638,366.040894 
	C352.174683,367.928192 350.913696,369.815491 349.382080,371.876465 
z"/>
<path fill="#28728A" opacity="1.000000" stroke="none" 
	d="
M106.930084,335.371704 
	C109.867775,337.776062 113.111763,340.287201 115.690720,343.357025 
	C120.303711,348.848022 124.515968,354.675659 128.921539,360.722626 
	C124.683922,356.596710 120.275398,352.237762 116.202682,347.584839 
	C112.904457,343.816742 110.010178,339.695038 106.930084,335.371704 
z"/>
<path fill="#487F9A" opacity="1.000000" stroke="none" 
	d="
M199.429993,440.889404 
	C200.582352,440.577026 202.204391,440.125122 203.828171,440.118774 
	C222.598755,440.045135 241.369629,440.038879 260.585022,440.242981 
	C261.029663,440.471252 261.066193,440.874268 261.066193,440.874268 
	C240.677628,440.901794 220.289047,440.929321 199.429993,440.889404 
z"/>
<path fill="#165860" opacity="1.000000" stroke="none" 
	d="
M372.087646,348.336884 
	C377.577911,351.388672 383.183289,354.759857 388.842102,358.461365 
	C386.539490,358.809296 384.183502,358.826935 381.386200,358.775818 
	C379.508636,356.631836 378.214325,354.436188 376.590057,352.520264 
	C375.343231,351.049500 373.680542,349.931274 372.087646,348.336884 
z"/>
<path fill="#8AACBE" opacity="1.000000" stroke="none" 
	d="
M353.136475,365.692322 
	C338.818146,366.038483 324.200623,366.036072 309.082458,366.046265 
	C309.117004,365.718201 309.653168,365.078583 310.187195,365.080383 
	C324.404022,365.127899 338.620636,365.241455 353.136475,365.692322 
z"/>
<path fill="#24576C" opacity="1.000000" stroke="none" 
	d="
M296.416290,435.050507 
	C299.959412,430.210266 303.855865,425.339874 308.119446,420.488770 
	C304.580963,425.345520 300.675293,430.182953 296.416290,435.050507 
z"/>
<path fill="#28728A" opacity="1.000000" stroke="none" 
	d="
M271.117523,97.337273 
	C271.571381,96.929245 272.396973,96.503654 272.821533,96.755127 
	C278.160461,99.917358 283.441467,103.177391 288.860352,106.729080 
	C283.089905,103.908638 277.196381,100.771492 271.117523,97.337273 
z"/>
<path fill="#165860" opacity="1.000000" stroke="none" 
	d="
M297.526672,358.779327 
	C308.433380,358.622711 319.799683,358.535248 331.545715,358.585510 
	C320.612396,358.765015 309.299347,358.806732 297.526672,358.779327 
z"/>
<path fill="#24576C" opacity="1.000000" stroke="none" 
	d="
M333.439880,391.112854 
	C336.523132,386.804413 339.971191,382.505463 343.753906,378.116608 
	C340.660614,382.391907 337.232635,386.757172 333.439880,391.112854 
z"/>
<path fill="#B7E3F1" opacity="1.000000" stroke="none" 
	d="
M261.528442,440.933075 
	C261.066193,440.874268 261.029663,440.471252 261.058472,440.271057 
	C271.064789,440.037384 281.042267,440.003845 291.484497,439.959351 
	C290.514740,440.301483 289.083252,440.944702 287.645111,440.960052 
	C279.094513,441.051270 270.542328,440.997162 261.528442,440.933075 
z"/>
<path fill="#28728A" opacity="1.000000" stroke="none" 
	d="
M172.909836,414.395874 
	C178.115891,416.115051 180.951874,420.298401 182.951462,425.621277 
	C179.630844,422.236969 176.268143,418.495361 172.909836,414.395874 
z"/>
<path fill="#28728A" opacity="1.000000" stroke="none" 
	d="
M128.933990,361.398254 
	C131.906754,364.476746 134.896530,367.911835 137.931595,371.704987 
	C134.968262,368.626984 131.959641,365.190918 128.933990,361.398254 
z"/>
<path fill="#28728A" opacity="1.000000" stroke="none" 
	d="
M292.159485,109.306168 
	C296.928650,109.244827 300.910828,111.290413 303.910309,115.679436 
	C300.118500,113.870125 296.231842,111.732277 292.159485,109.306168 
z"/>
<path fill="#165860" opacity="1.000000" stroke="none" 
	d="
M343.502136,358.793762 
	C350.079468,358.630371 357.118958,358.536316 364.537933,358.577637 
	C357.933044,358.763062 350.948639,358.813080 343.502136,358.793762 
z"/>
<path fill="#28728A" opacity="1.000000" stroke="none" 
	d="
M183.861389,427.348877 
	C185.092484,427.806793 186.340286,428.616669 187.784119,430.047913 
	C187.974579,431.153473 187.968994,431.637726 187.963409,432.121948 
	C186.601654,430.648254 185.239883,429.174561 183.861389,427.348877 
z"/>
<path fill="#28728A" opacity="1.000000" stroke="none" 
	d="
M70.893753,292.411743 
	C72.217888,293.496796 73.554054,294.926910 74.936417,296.711853 
	C73.623665,295.630066 72.264717,294.193451 70.893753,292.411743 
z"/>
<path fill="#28728A" opacity="1.000000" stroke="none" 
	d="
M168.891525,409.326538 
	C170.206863,410.435760 171.552551,411.892639 172.924652,413.707245 
	C171.608002,412.601349 170.264938,411.137787 168.891525,409.326538 
z"/>
<path fill="#24576C" opacity="1.000000" stroke="none" 
	d="
M292.498657,439.897949 
	C292.173187,439.615662 292.114899,439.149902 292.031708,438.332520 
	C293.156616,437.054596 294.306427,436.128265 295.768494,435.124939 
	C294.975800,436.603424 293.870789,438.158936 292.498657,439.897949 
z"/>
<path fill="#28728A" opacity="1.000000" stroke="none" 
	d="
M42.687737,224.881531 
	C42.171692,226.021988 41.343979,227.321075 40.191795,228.744232 
	C40.703571,227.592255 41.539818,226.316208 42.687737,224.881531 
z"/>
<path fill="#28728A" opacity="1.000000" stroke="none" 
	d="
M55.787071,208.780685 
	C55.537575,209.703918 55.013004,210.762146 54.164104,211.916565 
	C54.397182,210.980392 54.954590,209.948029 55.787071,208.780685 
z"/>
<path fill="#165860" opacity="1.000000" stroke="none" 
	d="
M371.468903,358.768616 
	C372.797302,358.618805 374.540649,358.537323 376.594391,358.580261 
	C375.231140,358.748779 373.557495,358.792877 371.468903,358.768616 
z"/>
<path fill="#196385" opacity="1.000000" stroke="none" 
	d="
M188.043182,432.344727 
	C187.968994,431.637726 187.974579,431.153473 187.983002,430.304688 
	C188.446594,430.899048 188.907333,431.857971 189.277832,433.155212 
	C188.832718,433.184906 188.477829,432.876221 188.043182,432.344727 
z"/>
<path fill="#308A97" opacity="1.000000" stroke="none" 
	d="
M391.966217,269.727173 
	C390.875366,269.520142 389.621002,269.003906 388.178650,268.199341 
	C389.261383,268.413330 390.532013,268.915649 391.966217,269.727173 
z"/>
<path fill="#165860" opacity="1.000000" stroke="none" 
	d="
M335.452759,358.788666 
	C336.485168,358.637665 337.922272,358.553131 339.652405,358.595306 
	C338.582733,358.766388 337.220093,358.810760 335.452759,358.788666 
z"/>
<path fill="#28728A" opacity="1.000000" stroke="none" 
	d="
M344.021576,107.667435 
	C343.383240,107.205177 342.744110,106.402550 342.072693,105.275917 
	C342.700531,105.743637 343.360657,106.535355 344.021576,107.667435 
z"/>
<path fill="#28728A" opacity="1.000000" stroke="none" 
	d="
M52.697823,212.924255 
	C52.494743,213.716217 51.971966,214.641998 51.168900,215.740356 
	C51.385117,214.961319 51.881618,214.009705 52.697823,212.924255 
z"/>
<path fill="#308A97" opacity="1.000000" stroke="none" 
	d="
M399.061432,272.731873 
	C398.203583,272.627075 397.188202,272.184387 395.959167,271.476624 
	C396.798279,271.605682 397.851105,271.999847 399.061432,272.731873 
z"/>
<path fill="#28728A" opacity="1.000000" stroke="none" 
	d="
M289.111023,107.314529 
	C289.877258,107.500778 290.796051,107.974396 291.853516,108.739258 
	C291.082642,108.554291 290.173065,108.078094 289.111023,107.314529 
z"/>
<path fill="#165860" opacity="1.000000" stroke="none" 
	d="
M345.306335,376.877625 
	C345.512695,376.127045 345.999054,375.226257 346.768066,374.175110 
	C346.562561,374.925598 346.074432,375.826477 345.306335,376.877625 
z"/>
<path fill="#165860" opacity="1.000000" stroke="none" 
	d="
M347.352600,374.004791 
	C347.537933,373.478668 348.049774,372.908325 348.833649,372.216797 
	C348.630127,372.717285 348.154633,373.338928 347.352600,374.004791 
z"/>
<path fill="#28728A" opacity="1.000000" stroke="none" 
	d="
M57.928902,206.669342 
	C57.797779,207.082108 57.461063,207.579620 56.869408,208.079666 
	C56.984077,207.639481 57.353691,207.196793 57.928902,206.669342 
z"/>
<path fill="#28728A" opacity="1.000000" stroke="none" 
	d="
M50.545441,215.880493 
	C50.403576,216.466064 49.905655,217.045456 49.149910,217.763351 
	C49.324516,217.226013 49.756947,216.550171 50.545441,215.880493 
z"/>
<path fill="#28728A" opacity="1.000000" stroke="none" 
	d="
M137.938599,372.362793 
	C138.547150,372.504761 139.158920,373.004242 139.876129,373.791260 
	C139.301651,373.625977 138.621719,373.173126 137.938599,372.362793 
z"/>
<path fill="#28728A" opacity="1.000000" stroke="none" 
	d="
M44.817459,221.729263 
	C44.803043,222.305832 44.503597,222.988403 43.950615,223.825516 
	C43.975525,223.265137 44.253979,222.550201 44.817459,221.729263 
z"/>
<path fill="#28728A" opacity="1.000000" stroke="none" 
	d="
M39.526085,228.864288 
	C39.388508,229.458221 38.893280,230.047882 38.138489,230.775269 
	C38.308765,230.228668 38.738598,229.544342 39.526085,228.864288 
z"/>
<path fill="#28728A" opacity="1.000000" stroke="none" 
	d="
M61.601059,202.778976 
	C61.421059,203.331879 60.879131,203.942551 60.093910,204.740448 
	C60.313457,204.230698 60.776295,203.533737 61.601059,202.778976 
z"/>
<path fill="#28728A" opacity="1.000000" stroke="none" 
	d="
M37.636284,230.999420 
	C37.427158,231.497269 36.930584,232.074722 36.170563,232.780670 
	C36.387684,232.299118 36.868259,231.689087 37.636284,230.999420 
z"/>
<path fill="#28728A" opacity="1.000000" stroke="none" 
	d="
M35.595024,233.003906 
	C35.662220,233.445038 35.414402,233.981995 34.964931,234.734802 
	C34.935524,234.333679 35.107761,233.716705 35.595024,233.003906 
z"/>
<path fill="#28728A" opacity="1.000000" stroke="none" 
	d="
M46.743500,219.854218 
	C46.678345,220.182678 46.361511,220.599045 45.791901,221.112305 
	C45.856693,220.786850 46.174259,220.364487 46.743500,219.854218 
z"/>
<path fill="#28728A" opacity="1.000000" stroke="none" 
	d="
M59.653030,204.936951 
	C59.591309,205.264862 59.281250,205.650024 58.731613,206.120972 
	C58.796253,205.802567 59.100475,205.398376 59.653030,204.936951 
z"/>
<path fill="#308A97" opacity="1.000000" stroke="none" 
	d="
M402.093292,273.747925 
	C401.620880,273.902863 400.989258,273.716858 400.076508,273.350159 
	C400.508270,273.248627 401.221191,273.327789 402.093292,273.747925 
z"/>
<path fill="#308A97" opacity="1.000000" stroke="none" 
	d="
M406.053528,275.772095 
	C405.853333,275.893311 405.528412,275.721497 404.989594,275.372711 
	C405.160065,275.290161 405.544434,275.384613 406.053528,275.772095 
z"/>
<path fill="#28728A" opacity="1.000000" stroke="none" 
	d="
M339.026611,100.683655 
	C338.815552,100.728096 338.567017,100.491211 338.192932,100.029144 
	C338.374634,100.003418 338.681854,100.202873 339.026611,100.683655 
z"/>
<path fill="#28728A" opacity="1.000000" stroke="none" 
	d="
M340.018494,101.686424 
	C339.775482,101.798981 339.525696,101.592850 339.177002,101.138214 
	C339.350403,101.096146 339.661621,101.255486 340.018494,101.686424 
z"/>
<path fill="#28728A" opacity="1.000000" stroke="none" 
	d="
M340.923004,102.895065 
	C340.658112,102.929565 340.457916,102.661621 340.153931,102.165680 
	C340.362671,102.156006 340.675201,102.374313 340.923004,102.895065 
z"/>
<path fill="#308A97" opacity="1.000000" stroke="none" 
	d="
M386.981934,266.817200 
	C387.066925,266.999725 386.591095,266.958221 386.354248,266.935242 
	C386.377228,266.819702 386.637085,266.727173 386.981934,266.817200 
z"/>
<path fill="#308A97" opacity="1.000000" stroke="none" 
	d="
M388.009888,267.741699 
	C387.817902,267.798065 387.549408,267.581696 387.129364,267.153931 
	C387.296326,267.118042 387.614838,267.293518 388.009888,267.741699 
z"/>
<path fill="#28728A" opacity="1.000000" stroke="none" 
	d="
M341.974976,104.726517 
	C341.795776,104.764366 341.543182,104.537735 341.143188,104.102394 
	C341.297668,104.083138 341.599609,104.272591 341.974976,104.726517 
z"/>
<path fill="#308A97" opacity="1.000000" stroke="none" 
	d="
M395.042419,270.757019 
	C394.831024,270.893799 394.492828,270.728363 393.933350,270.383514 
	C394.113281,270.287659 394.514435,270.371246 395.042419,270.757019 
z"/>
<path fill="#308A97" opacity="1.000000" stroke="none" 
	d="
M403.977478,274.773315 
	C403.791351,274.876373 403.484711,274.705933 402.968384,274.372009 
	C403.124756,274.305603 403.490845,274.402740 403.977478,274.773315 
z"/>
<path fill="#28728A" opacity="1.000000" stroke="none" 
	d="
M344.942993,108.768600 
	C344.744476,108.838036 344.500702,108.620430 344.136841,108.175255 
	C344.282196,108.157265 344.575867,108.335220 344.942993,108.768600 
z"/>
<path fill="#24576C" opacity="1.000000" stroke="none" 
	d="
M344.236450,377.970734 
	C344.189301,377.806396 344.404419,377.554901 344.826843,377.156586 
	C344.833374,377.281921 344.654877,377.573181 344.236450,377.970734 
z"/>
<path fill="#28728A" opacity="1.000000" stroke="none" 
	d="
M48.658512,217.981857 
	C48.710213,218.200455 48.480835,218.461426 48.016914,218.840240 
	C47.980724,218.646774 48.179081,218.335495 48.658512,217.981857 
z"/>
<path fill="#28728A" opacity="1.000000" stroke="none" 
	d="
M346.973602,110.725296 
	C346.771484,110.805450 346.516998,110.593323 346.137817,110.149734 
	C346.286072,110.125504 346.588806,110.297081 346.973602,110.725296 
z"/>
<path fill="#28728A" opacity="1.000000" stroke="none" 
	d="
M348.017517,111.697594 
	C347.763184,111.814781 347.510193,111.603371 347.158752,111.137413 
	C347.339203,111.093521 347.658691,111.255569 348.017517,111.697594 
z"/>
<path fill="#02B2C9" opacity="1.000000" stroke="none" 
	d="
M265.217407,286.972717 
	C260.624451,286.461914 261.043549,283.169830 261.046417,280.192139 
	C261.068115,257.570068 261.118256,234.947998 261.507690,211.752655 
	C266.807068,208.385376 271.758362,205.591370 277.008392,202.934418 
	C281.212067,201.121902 285.117035,199.172318 289.021973,197.222717 
	C301.482697,191.751556 314.019409,186.445847 326.384705,180.766922 
	C341.486877,173.831039 356.445160,166.581863 371.759094,159.285751 
	C373.012512,161.047791 374.789429,162.984848 374.807098,164.937805 
	C374.999878,186.267731 374.869080,207.600311 374.952728,228.931702 
	C374.968719,233.001205 372.691467,234.821442 369.393860,236.278305 
	C362.692688,239.238831 356.039215,242.312820 349.438019,245.489532 
	C348.175812,246.096939 347.244537,247.392120 346.028076,248.696655 
	C340.392181,251.465408 334.888824,253.907501 328.800262,256.719177 
	C325.217133,258.452026 322.185730,259.746826 319.227112,261.190674 
	C307.805817,266.764435 296.407776,272.385773 285.001068,277.989349 
	C282.773956,279.026764 280.546875,280.064209 277.723938,281.397675 
	C275.678467,282.424133 274.228821,283.154572 272.779205,283.885040 
	C272.779205,283.885040 272.373779,284.060852 271.895142,284.240601 
	C270.743347,284.861481 270.070221,285.302612 269.397125,285.743744 
	C268.111115,286.113525 266.825104,286.483307 265.217407,286.972717 
z"/>
<path fill="#02687C" opacity="1.000000" stroke="none" 
	d="
M285.128967,278.301941 
	C296.407776,272.385773 307.805817,266.764435 319.227112,261.190674 
	C322.185730,259.746826 325.217133,258.452026 328.571869,256.982788 
	C329.050690,257.140564 329.099304,257.414368 328.825500,257.965820 
	C328.331665,258.459045 328.086884,258.684570 327.842072,258.910126 
	C324.751587,260.817932 321.661102,262.725739 317.965393,264.915588 
	C315.242554,266.469116 313.124939,267.740662 311.007294,269.012177 
	C307.808258,271.144501 304.609192,273.276855 300.840668,275.718353 
	C298.170319,277.343079 296.069458,278.658600 293.968567,279.974121 
	C293.968567,279.974121 294.004517,279.997772 293.694489,280.064240 
	C292.576538,280.747803 291.768585,281.364929 290.960663,281.981995 
	C290.448578,282.188538 289.936523,282.395081 288.861450,282.772583 
	C287.857758,282.960724 287.417023,282.977936 286.976318,282.995148 
	C286.403168,281.534943 285.830017,280.074738 285.128967,278.301941 
z"/>
<path fill="#158190" opacity="1.000000" stroke="none" 
	d="
M288.991791,302.079987 
	C283.555145,299.476044 278.118469,296.872101 271.244781,293.579895 
	C273.858917,292.127380 275.004913,291.490570 276.461243,290.770569 
	C279.365875,297.278717 286.181732,297.218872 291.260254,299.910095 
	C296.463654,302.667480 301.614502,305.524078 306.528503,308.641174 
	C305.445068,308.823547 304.621490,308.702057 303.583374,308.367340 
	C298.576508,306.129395 293.784149,304.104706 288.991791,302.079987 
z"/>
<path fill="#25484D" opacity="1.000000" stroke="none" 
	d="
M303.797882,308.580566 
	C304.621490,308.702057 305.445068,308.823547 306.687683,308.939880 
	C307.405640,309.063843 307.713257,309.167236 308.264038,309.296051 
	C313.151276,311.765533 317.803986,314.183838 322.728394,316.822693 
	C322.942444,318.157288 322.884735,319.271332 322.593201,320.675049 
	C321.910889,320.982330 321.462433,320.999969 321.013977,321.017578 
	C321.013977,321.017548 320.998718,321.000305 320.837708,320.701538 
	C318.103577,318.956268 315.530487,317.509796 312.957367,316.063293 
	C312.191315,315.744507 311.425293,315.425751 310.220581,314.765076 
	C309.180573,313.960052 308.579285,313.496948 307.977966,313.033813 
	C307.556061,312.998413 307.134155,312.963013 306.249146,312.608887 
	C305.123291,311.053650 304.460602,309.817078 303.797882,308.580566 
z"/>
<path fill="#158190" opacity="1.000000" stroke="none" 
	d="
M286.751556,283.194336 
	C287.417023,282.977936 287.857758,282.960724 288.627991,282.920929 
	C287.787415,286.533661 285.241394,288.195923 281.201111,287.977234 
	C281.104706,287.578735 281.310028,287.337006 281.973389,286.835022 
	C282.939270,286.024353 283.471222,285.494446 284.003174,284.964539 
	C284.844391,284.440887 285.685577,283.917206 286.751556,283.194336 
z"/>
<path fill="#158190" opacity="1.000000" stroke="none" 
	d="
M294.343750,279.941376 
	C296.069458,278.658600 298.170319,277.343079 300.619690,275.965759 
	C298.885101,277.238892 296.802032,278.573761 294.343750,279.941376 
z"/>
<path fill="#158190" opacity="1.000000" stroke="none" 
	d="
M311.396332,269.001923 
	C313.124939,267.740662 315.242554,266.469116 317.692505,265.110321 
	C315.944977,266.345917 313.865173,267.668793 311.396332,269.001923 
z"/>
<path fill="#158190" opacity="1.000000" stroke="none" 
	d="
M291.280518,281.930115 
	C291.768585,281.364929 292.576538,280.747803 293.682983,280.045654 
	C293.187775,280.599823 292.394073,281.239014 291.280518,281.930115 
z"/>
<path fill="#158190" opacity="1.000000" stroke="none" 
	d="
M415.753510,347.076263 
	C415.934052,347.434875 415.930695,347.898163 415.903320,348.708496 
	C415.776093,348.430695 415.672852,347.805786 415.753510,347.076263 
z"/>
<path fill="#158190" opacity="1.000000" stroke="none" 
	d="
M277.282654,289.895386 
	C277.485565,289.678741 277.954681,289.367035 278.692810,288.963104 
	C278.490814,289.180695 278.019836,289.490509 277.282654,289.895386 
z"/>
<path fill="#158190" opacity="1.000000" stroke="none" 
	d="
M328.047791,258.768951 
	C328.086884,258.684570 328.331665,258.459045 328.788544,258.101318 
	C328.766998,258.206146 328.517944,258.425690 328.047791,258.768951 
z"/>
<path fill="#165860" opacity="1.000000" stroke="none" 
	d="
M303.583374,308.367310 
	C304.460602,309.817078 305.123291,311.053650 305.932007,312.592224 
	C300.436066,309.508118 294.794128,306.121979 289.071991,302.407898 
	C293.784149,304.104706 298.576508,306.129395 303.583374,308.367310 
z"/>
<path fill="#165860" opacity="1.000000" stroke="none" 
	d="
M348.108521,335.334564 
	C355.530396,339.150696 363.103790,343.263580 370.899902,347.633026 
	C363.501740,343.803497 355.880920,339.717407 348.108521,335.334564 
z"/>
<path fill="#165860" opacity="1.000000" stroke="none" 
	d="
M333.081116,327.389679 
	C337.291626,329.450470 341.615692,331.834442 346.094238,334.519470 
	C341.897339,332.451294 337.546021,330.082092 333.081116,327.389679 
z"/>
<path fill="#165860" opacity="1.000000" stroke="none" 
	d="
M313.103882,316.366394 
	C315.530487,317.509796 318.103577,318.956268 320.828064,320.695251 
	C318.403107,319.548309 315.826752,318.108917 313.103882,316.366394 
z"/>
<path fill="#165860" opacity="1.000000" stroke="none" 
	d="
M326.888184,323.253967 
	C328.277893,324.088898 329.605438,325.176025 331.064087,326.560577 
	C329.738770,325.740723 328.282410,324.623444 326.888184,323.253967 
z"/>
<path fill="#02687C" opacity="1.000000" stroke="none" 
	d="
M273.178040,283.901947 
	C274.228821,283.154572 275.678467,282.424133 277.475677,281.609131 
	C276.407776,282.322662 274.992310,283.120758 273.178040,283.901947 
z"/>
<path fill="#165860" opacity="1.000000" stroke="none" 
	d="
M321.132996,321.255005 
	C321.462433,320.999969 321.910889,320.982330 322.696045,320.944275 
	C323.208679,320.989624 323.384644,321.055481 323.817139,321.240662 
	C323.133087,321.404144 322.192535,321.448303 321.132996,321.255005 
z"/>
<path fill="#02687C" opacity="1.000000" stroke="none" 
	d="
M283.778076,284.911011 
	C283.471222,285.494446 282.939270,286.024353 282.152252,286.677429 
	C282.449066,286.152863 283.001007,285.505188 283.778076,284.911011 
z"/>
<path fill="#165860" opacity="1.000000" stroke="none" 
	d="
M308.113647,313.292175 
	C308.579285,313.496948 309.180573,313.960052 309.921387,314.678528 
	C309.457001,314.472778 308.853149,314.011658 308.113647,313.292175 
z"/>
<path fill="#02687C" opacity="1.000000" stroke="none" 
	d="
M269.711487,285.701416 
	C270.070221,285.302612 270.743347,284.861481 271.714233,284.367493 
	C271.349945,284.762756 270.687897,285.210907 269.711487,285.701416 
z"/>
<path fill="#165860" opacity="1.000000" stroke="none" 
	d="
M325.281219,321.477661 
	C325.515533,321.504486 325.934204,321.648499 326.515106,321.946899 
	C326.273407,321.932465 325.869507,321.763641 325.281219,321.477661 
z"/>
<path fill="#25484D" opacity="1.000000" stroke="none" 
	d="
M332.308899,326.829529 
	C332.317719,326.708710 332.547272,326.712433 332.879059,326.855225 
	C332.983246,326.912292 332.531586,326.872070 332.308899,326.829529 
z"/>
<path fill="#25484D" opacity="1.000000" stroke="none" 
	d="
M334.284241,322.278931 
	C334.571198,322.300812 335.080536,322.472717 335.802734,322.815613 
	C335.512604,322.800751 335.009583,322.614838 334.284241,322.278931 
z"/>
<path fill="#25484D" opacity="1.000000" stroke="none" 
	d="
M329.306763,319.892303 
	C329.653809,319.927826 330.240295,320.179504 331.072937,320.640930 
	C330.728119,320.603302 330.137207,320.355896 329.306763,319.892303 
z"/>
<path fill="#25484D" opacity="1.000000" stroke="none" 
	d="
M336.230255,323.162354 
	C336.351349,323.154938 336.697876,323.326355 337.252655,323.709717 
	C337.125854,323.728149 336.790741,323.534668 336.230255,323.162354 
z"/>
<path fill="#03E0FA" opacity="1.000000" stroke="none" 
	d="
M261.328674,207.820129 
	C261.257874,192.539200 261.187103,177.258255 261.144348,161.513580 
	C265.142731,160.285675 269.108734,158.890030 273.084076,158.862869 
	C294.184326,158.718689 315.287048,158.905518 336.388611,159.029800 
	C337.633484,159.037125 338.875671,159.498779 341.094025,159.945190 
	C339.530609,162.238022 338.396149,163.901749 337.135468,165.894073 
	C337.009247,166.222641 336.787598,166.306747 336.281372,166.280243 
	C334.529907,167.196274 333.284607,168.138824 332.039337,169.081360 
	C332.039337,169.081360 332.011566,169.022705 331.663910,169.059662 
	C328.221832,171.115860 325.127411,173.135117 322.032990,175.154388 
	C321.388123,175.519516 320.743256,175.884644 319.408936,176.259323 
	C313.193451,177.745392 308.106171,179.900940 305.005096,185.130417 
	C305.005096,185.130417 304.769348,185.232071 304.233459,185.224915 
	C300.794373,187.154083 297.891174,189.090408 294.987976,191.026733 
	C294.199615,191.624802 293.411255,192.222855 292.108215,192.820709 
	C290.755219,193.281860 289.916870,193.743195 289.078552,194.204529 
	C289.078552,194.204544 289.102509,194.138077 288.757263,194.157089 
	C286.762939,194.864075 285.057190,195.442261 283.474426,196.258789 
	C276.073944,200.076584 268.707367,203.960098 261.328674,207.820129 
z"/>
<path fill="#17D6E9" opacity="1.000000" stroke="none" 
	d="
M261.259644,208.231567 
	C268.707367,203.960098 276.073944,200.076584 283.474426,196.258789 
	C285.057190,195.442261 286.762939,194.864075 288.790283,194.169693 
	C288.923645,194.648270 288.678741,195.133255 287.949249,195.948090 
	C283.879669,198.451096 280.294647,200.624207 276.709656,202.797333 
	C271.758362,205.591370 266.807068,208.385376 261.517334,211.312164 
	C261.142365,211.254044 261.105896,211.063156 261.020020,210.588470 
	C261.043884,209.750778 261.117249,209.196899 261.259644,208.231567 
z"/>
<path fill="#17D6E9" opacity="1.000000" stroke="none" 
	d="
M305.360687,185.066849 
	C308.106171,179.900940 313.193451,177.745392 319.130768,176.299316 
	C314.933441,179.220947 310.324860,182.112122 305.360687,185.066849 
z"/>
<path fill="#1099B7" opacity="1.000000" stroke="none" 
	d="
M277.008392,202.934402 
	C280.294647,200.624207 283.879669,198.451096 287.804626,196.179535 
	C288.369904,196.308105 288.574707,196.552277 288.890533,197.018158 
	C285.117035,199.172318 281.212067,201.121902 277.008392,202.934402 
z"/>
<path fill="#17D6E9" opacity="1.000000" stroke="none" 
	d="
M295.340454,190.976379 
	C297.891174,189.090408 300.794373,187.154083 304.105103,185.223297 
	C301.572754,187.127899 298.632812,189.026962 295.340454,190.976379 
z"/>
<path fill="#17D6E9" opacity="1.000000" stroke="none" 
	d="
M322.376373,175.065308 
	C325.127411,173.135117 328.221832,171.115860 331.693512,169.072937 
	C328.953766,171.024933 325.836761,173.000595 322.376373,175.065308 
z"/>
<path fill="#17D6E9" opacity="1.000000" stroke="none" 
	d="
M332.370758,169.010803 
	C333.284607,168.138824 334.529907,167.196274 336.163574,166.266876 
	C335.268738,167.166763 333.985443,168.053513 332.370758,169.010803 
z"/>
<path fill="#17D6E9" opacity="1.000000" stroke="none" 
	d="
M289.408966,194.195282 
	C289.916870,193.743195 290.755219,193.281860 291.831116,192.930878 
	C291.292297,193.422806 290.515839,193.804413 289.408966,194.195282 
z"/>
<path fill="#1F9BA6" opacity="1.000000" stroke="none" 
	d="
M350.526642,157.504364 
	C351.645813,157.225800 352.855316,157.169235 354.504761,157.177414 
	C353.817383,157.519119 352.690063,157.796082 351.203430,158.110779 
	C350.844147,158.148529 350.617004,157.726364 350.526642,157.504364 
z"/>
<path fill="#1F9BA6" opacity="1.000000" stroke="none" 
	d="
M347.993927,157.329727 
	C348.051544,157.298935 348.284088,157.286606 348.865784,157.293442 
	C348.866241,157.324463 348.517578,157.336319 347.993927,157.329727 
z"/>
</svg>